<svg width="347" height="68" viewBox="0 0 347 68" fill="none" xmlns="http://www.w3.org/2000/svg">
<path d="M30.7745 5.87205L4.42927 33.0394L16.8458 45.6048M53.1546 32.892L29.2623 58.1703L16.8458 45.6048M16.8458 45.6048L32.8411 28.5314" stroke="url(#paint0_linear_4014_56)" stroke-width="3.80928" stroke-linejoin="bevel"/>
<path d="M38.0849 62.2992L64.0019 34.8038L51.5854 22.2384M15.2765 34.9512L39.1689 9.67299L51.5854 22.2384M51.5854 22.2384L35.59 39.3119" stroke="url(#paint1_linear_4014_56)" stroke-width="3.80928" stroke-linejoin="bevel"/>
<path d="M74.9272 23.3C74.9272 19.7293 75.7072 16.54 77.2672 13.732C78.8272 10.8893 80.9592 8.688 83.6632 7.128C86.3672 5.53333 89.3832 4.736 92.7112 4.736C96.7672 4.736 100.234 5.70667 103.111 7.648C106.023 9.55467 108.138 12.2587 109.455 15.76H105.191C104.151 13.2987 102.556 11.3747 100.407 9.988C98.2925 8.60133 95.7272 7.908 92.7112 7.908C90.0418 7.908 87.6325 8.532 85.4832 9.78C83.3685 11.028 81.7045 12.8307 80.4912 15.188C79.2778 17.5107 78.6712 20.2147 78.6712 23.3C78.6712 26.3853 79.2778 29.0893 80.4912 31.412C81.7045 33.7347 83.3685 35.52 85.4832 36.768C87.6325 38.016 90.0418 38.64 92.7112 38.64C95.7272 38.64 98.2925 37.964 100.407 36.612C102.556 35.2253 104.151 33.3187 105.191 30.892H109.455C108.138 34.3587 106.023 37.0453 103.111 38.952C100.199 40.8587 96.7325 41.812 92.7112 41.812C89.3832 41.812 86.3672 41.032 83.6632 39.472C80.9592 37.8773 78.8272 35.676 77.2672 32.868C75.7072 30.06 74.9272 26.8707 74.9272 23.3ZM120.348 38.536H133.4V41.5H116.708V5.152H120.348V38.536ZM142.235 5.152V41.5H138.595V5.152H142.235ZM177.882 41.5H174.242L154.118 10.924V41.5H150.478V5.152H154.118L174.242 35.676V5.152H177.882V41.5ZM189.766 5.152V41.5H186.126V5.152H189.766ZM196.345 23.3C196.345 19.7293 197.125 16.54 198.685 13.732C200.245 10.8893 202.377 8.688 205.081 7.128C207.785 5.53333 210.801 4.736 214.129 4.736C218.185 4.736 221.652 5.70667 224.529 7.648C227.441 9.55467 229.556 12.2587 230.873 15.76H226.609C225.569 13.2987 223.974 11.3747 221.825 9.988C219.71 8.60133 217.145 7.908 214.129 7.908C211.46 7.908 209.05 8.532 206.901 9.78C204.786 11.028 203.122 12.8307 201.909 15.188C200.696 17.5107 200.089 20.2147 200.089 23.3C200.089 26.3853 200.696 29.0893 201.909 31.412C203.122 33.7347 204.786 35.52 206.901 36.768C209.05 38.016 211.46 38.64 214.129 38.64C217.145 38.64 219.71 37.964 221.825 36.612C223.974 35.2253 225.569 33.3187 226.609 30.892H230.873C229.556 34.3587 227.441 37.0453 224.529 38.952C221.617 40.8587 218.15 41.812 214.129 41.812C210.801 41.812 207.785 41.032 205.081 39.472C202.377 37.8773 200.245 35.676 198.685 32.868C197.125 30.06 196.345 26.8707 196.345 23.3ZM254.454 41.864C251.092 41.864 248.041 41.084 245.302 39.524C242.564 37.9293 240.397 35.728 238.802 32.92C237.242 30.0773 236.462 26.8707 236.462 23.3C236.462 19.7293 237.242 16.54 238.802 13.732C240.397 10.8893 242.564 8.688 245.302 7.128C248.041 5.53333 251.092 4.736 254.454 4.736C257.852 4.736 260.92 5.53333 263.658 7.128C266.397 8.688 268.546 10.8893 270.106 13.732C271.666 16.54 272.446 19.7293 272.446 23.3C272.446 26.8707 271.666 30.0773 270.106 32.92C268.546 35.728 266.397 37.9293 263.658 39.524C260.92 41.084 257.852 41.864 254.454 41.864ZM254.454 38.692C257.158 38.692 259.585 38.068 261.734 36.82C263.884 35.572 265.582 33.7867 266.83 31.464C268.078 29.1067 268.702 26.3853 268.702 23.3C268.702 20.2147 268.078 17.5107 266.83 15.188C265.582 12.8653 263.884 11.08 261.734 9.832C259.585 8.584 257.158 7.96 254.454 7.96C251.75 7.96 249.324 8.584 247.174 9.832C245.025 11.08 243.326 12.8653 242.078 15.188C240.83 17.5107 240.206 20.2147 240.206 23.3C240.206 26.3853 240.83 29.1067 242.078 31.464C243.326 33.7867 245.025 35.572 247.174 36.82C249.324 38.068 251.75 38.692 254.454 38.692ZM314.623 5.62V41.5H310.983V12.848L298.191 41.5H295.539L282.747 12.952V41.5H279.107V5.62H282.955L296.839 36.716L310.723 5.62H314.623ZM326.52 8.116V21.688H340.3V24.704H326.52V38.484H341.86V41.5H322.88V5.1H341.86V8.116H326.52Z" fill="#262626"/>
<path d="M85.1352 51.332V53.14H82.1592V62.5H79.9192V53.14H76.9432V51.332H85.1352ZM98.8015 53.508C99.4735 53.508 100.071 53.6573 100.594 53.956C101.116 54.244 101.522 54.676 101.81 55.252C102.108 55.8173 102.258 56.5 102.258 57.3V62.5H100.018V57.604C100.018 56.9 99.8415 56.3613 99.4895 55.988C99.1375 55.604 98.6575 55.412 98.0495 55.412C97.4309 55.412 96.9402 55.604 96.5775 55.988C96.2255 56.3613 96.0495 56.9 96.0495 57.604V62.5H93.8095V50.66H96.0495V54.74C96.3375 54.356 96.7215 54.0573 97.2015 53.844C97.6815 53.62 98.2149 53.508 98.8015 53.508ZM119.668 57.876C119.668 58.196 119.646 58.484 119.604 58.74H113.124C113.177 59.38 113.401 59.8813 113.796 60.244C114.19 60.6067 114.676 60.788 115.252 60.788C116.084 60.788 116.676 60.4307 117.028 59.716H119.444C119.188 60.5693 118.697 61.2733 117.972 61.828C117.246 62.372 116.356 62.644 115.3 62.644C114.446 62.644 113.678 62.4573 112.996 62.084C112.324 61.7 111.796 61.1613 111.412 60.468C111.038 59.7747 110.852 58.9747 110.852 58.068C110.852 57.1507 111.038 56.3453 111.412 55.652C111.785 54.9587 112.308 54.4253 112.98 54.052C113.652 53.6787 114.425 53.492 115.3 53.492C116.142 53.492 116.894 53.6733 117.556 54.036C118.228 54.3987 118.745 54.916 119.108 55.588C119.481 56.2493 119.668 57.012 119.668 57.876ZM117.348 57.236C117.337 56.66 117.129 56.2013 116.724 55.86C116.318 55.508 115.822 55.332 115.236 55.332C114.681 55.332 114.212 55.5027 113.828 55.844C113.454 56.1747 113.225 56.6387 113.14 57.236H117.348ZM146.971 54.692C146.715 54.2227 146.363 53.8653 145.915 53.62C145.467 53.3747 144.944 53.252 144.347 53.252C143.686 53.252 143.099 53.4013 142.587 53.7C142.075 53.9987 141.675 54.4253 141.387 54.98C141.099 55.5347 140.955 56.1747 140.955 56.9C140.955 57.6467 141.099 58.2973 141.387 58.852C141.686 59.4067 142.096 59.8333 142.619 60.132C143.142 60.4307 143.75 60.58 144.443 60.58C145.296 60.58 145.995 60.356 146.539 59.908C147.083 59.4493 147.44 58.8147 147.611 58.004H143.771V56.292H149.819V58.244C149.67 59.0227 149.35 59.7427 148.859 60.404C148.368 61.0653 147.734 61.5987 146.955 62.004C146.187 62.3987 145.323 62.596 144.363 62.596C143.286 62.596 142.31 62.356 141.435 61.876C140.571 61.3853 139.888 60.708 139.387 59.844C138.896 58.98 138.651 57.9987 138.651 56.9C138.651 55.8013 138.896 54.82 139.387 53.956C139.888 53.0813 140.571 52.404 141.435 51.924C142.31 51.4333 143.28 51.188 144.347 51.188C145.606 51.188 146.699 51.4973 147.627 52.116C148.555 52.724 149.195 53.5827 149.547 54.692H146.971ZM166.756 57.876C166.756 58.196 166.735 58.484 166.692 58.74H160.212C160.266 59.38 160.49 59.8813 160.884 60.244C161.279 60.6067 161.764 60.788 162.34 60.788C163.172 60.788 163.764 60.4307 164.116 59.716H166.532C166.276 60.5693 165.786 61.2733 165.06 61.828C164.335 62.372 163.444 62.644 162.388 62.644C161.535 62.644 160.767 62.4573 160.084 62.084C159.412 61.7 158.884 61.1613 158.5 60.468C158.127 59.7747 157.94 58.9747 157.94 58.068C157.94 57.1507 158.127 56.3453 158.5 55.652C158.874 54.9587 159.396 54.4253 160.068 54.052C160.74 53.6787 161.514 53.492 162.388 53.492C163.231 53.492 163.983 53.6733 164.644 54.036C165.316 54.3987 165.834 54.916 166.196 55.588C166.57 56.2493 166.756 57.012 166.756 57.876ZM164.436 57.236C164.426 56.66 164.218 56.2013 163.812 55.86C163.407 55.508 162.911 55.332 162.324 55.332C161.77 55.332 161.3 55.5027 160.916 55.844C160.543 56.1747 160.314 56.6387 160.228 57.236H164.436ZM180.343 53.508C181.399 53.508 182.253 53.844 182.903 54.516C183.554 55.1773 183.879 56.1053 183.879 57.3V62.5H181.639V57.604C181.639 56.9 181.463 56.3613 181.111 55.988C180.759 55.604 180.279 55.412 179.671 55.412C179.053 55.412 178.562 55.604 178.199 55.988C177.847 56.3613 177.671 56.9 177.671 57.604V62.5H175.431V53.636H177.671V54.74C177.97 54.356 178.349 54.0573 178.807 53.844C179.277 53.62 179.789 53.508 180.343 53.508ZM201.29 57.876C201.29 58.196 201.268 58.484 201.226 58.74H194.746C194.799 59.38 195.023 59.8813 195.418 60.244C195.812 60.6067 196.298 60.788 196.874 60.788C197.706 60.788 198.298 60.4307 198.65 59.716H201.066C200.81 60.5693 200.319 61.2733 199.594 61.828C198.868 62.372 197.978 62.644 196.922 62.644C196.068 62.644 195.3 62.4573 194.618 62.084C193.946 61.7 193.418 61.1613 193.034 60.468C192.66 59.7747 192.474 58.9747 192.474 58.068C192.474 57.1507 192.66 56.3453 193.034 55.652C193.407 54.9587 193.93 54.4253 194.602 54.052C195.274 53.6787 196.047 53.492 196.922 53.492C197.764 53.492 198.516 53.6733 199.178 54.036C199.85 54.3987 200.367 54.916 200.73 55.588C201.103 56.2493 201.29 57.012 201.29 57.876ZM198.97 57.236C198.959 56.66 198.751 56.2013 198.346 55.86C197.94 55.508 197.444 55.332 196.858 55.332C196.303 55.332 195.834 55.5027 195.45 55.844C195.076 56.1747 194.847 56.6387 194.762 57.236H198.97ZM212.573 55.476V59.764C212.573 60.0627 212.642 60.2813 212.781 60.42C212.93 60.548 213.175 60.612 213.517 60.612H214.557V62.5H213.149C211.261 62.5 210.317 61.5827 210.317 59.748V55.476H209.261V53.636H210.317V51.444H212.573V53.636H214.557V55.476H212.573ZM224.344 52.58C223.949 52.58 223.618 52.4573 223.352 52.212C223.096 51.956 222.968 51.6413 222.968 51.268C222.968 50.8947 223.096 50.5853 223.352 50.34C223.618 50.084 223.949 49.956 224.344 49.956C224.738 49.956 225.064 50.084 225.32 50.34C225.586 50.5853 225.72 50.8947 225.72 51.268C225.72 51.6413 225.586 51.956 225.32 52.212C225.064 52.4573 224.738 52.58 224.344 52.58ZM225.448 53.636V62.5H223.208V53.636H225.448ZM234.125 58.068C234.125 57.1507 234.311 56.3507 234.685 55.668C235.058 54.9747 235.575 54.4413 236.237 54.068C236.898 53.684 237.655 53.492 238.509 53.492C239.607 53.492 240.514 53.7693 241.229 54.324C241.954 54.868 242.439 55.636 242.685 56.628H240.269C240.141 56.244 239.922 55.9453 239.613 55.732C239.314 55.508 238.941 55.396 238.493 55.396C237.853 55.396 237.346 55.6307 236.973 56.1C236.599 56.5587 236.413 57.2147 236.413 58.068C236.413 58.9107 236.599 59.5667 236.973 60.036C237.346 60.4947 237.853 60.724 238.493 60.724C239.399 60.724 239.991 60.3187 240.269 59.508H242.685C242.439 60.468 241.954 61.2307 241.229 61.796C240.503 62.3613 239.597 62.644 238.509 62.644C237.655 62.644 236.898 62.4573 236.237 62.084C235.575 61.7 235.058 61.1667 234.685 60.484C234.311 59.7907 234.125 58.9853 234.125 58.068ZM261.674 56.9C261.674 55.8013 261.92 54.82 262.41 53.956C262.912 53.0813 263.589 52.404 264.442 51.924C265.306 51.4333 266.272 51.188 267.338 51.188C268.586 51.188 269.68 51.508 270.618 52.148C271.557 52.788 272.213 53.6733 272.586 54.804H270.01C269.754 54.2707 269.392 53.8707 268.922 53.604C268.464 53.3373 267.93 53.204 267.322 53.204C266.672 53.204 266.09 53.3587 265.578 53.668C265.077 53.9667 264.682 54.3933 264.394 54.948C264.117 55.5027 263.978 56.1533 263.978 56.9C263.978 57.636 264.117 58.2867 264.394 58.852C264.682 59.4067 265.077 59.8387 265.578 60.148C266.09 60.4467 266.672 60.596 267.322 60.596C267.93 60.596 268.464 60.4627 268.922 60.196C269.392 59.9187 269.754 59.5133 270.01 58.98H272.586C272.213 60.1213 271.557 61.012 270.618 61.652C269.69 62.2813 268.597 62.596 267.338 62.596C266.272 62.596 265.306 62.356 264.442 61.876C263.589 61.3853 262.912 60.708 262.41 59.844C261.92 58.98 261.674 57.9987 261.674 56.9ZM283.78 50.66V62.5H281.54V50.66H283.78ZM294.169 52.58C293.774 52.58 293.443 52.4573 293.177 52.212C292.921 51.956 292.793 51.6413 292.793 51.268C292.793 50.8947 292.921 50.5853 293.177 50.34C293.443 50.084 293.774 49.956 294.169 49.956C294.563 49.956 294.889 50.084 295.145 50.34C295.411 50.5853 295.545 50.8947 295.545 51.268C295.545 51.6413 295.411 51.956 295.145 52.212C294.889 52.4573 294.563 52.58 294.169 52.58ZM295.273 53.636V62.5H293.033V53.636H295.273ZM309.438 53.508C310.494 53.508 311.347 53.844 311.998 54.516C312.648 55.1773 312.974 56.1053 312.974 57.3V62.5H310.734V57.604C310.734 56.9 310.558 56.3613 310.206 55.988C309.854 55.604 309.374 55.412 308.766 55.412C308.147 55.412 307.656 55.604 307.294 55.988C306.942 56.3613 306.766 56.9 306.766 57.604V62.5H304.526V53.636H306.766V54.74C307.064 54.356 307.443 54.0573 307.902 53.844C308.371 53.62 308.883 53.508 309.438 53.508ZM323.28 52.58C322.885 52.58 322.555 52.4573 322.288 52.212C322.032 51.956 321.904 51.6413 321.904 51.268C321.904 50.8947 322.032 50.5853 322.288 50.34C322.555 50.084 322.885 49.956 323.28 49.956C323.675 49.956 324 50.084 324.256 50.34C324.523 50.5853 324.656 50.8947 324.656 51.268C324.656 51.6413 324.523 51.956 324.256 52.212C324 52.4573 323.675 52.58 323.28 52.58ZM324.384 53.636V62.5H322.144V53.636H324.384ZM333.061 58.068C333.061 57.1507 333.248 56.3507 333.621 55.668C333.994 54.9747 334.512 54.4413 335.173 54.068C335.834 53.684 336.592 53.492 337.445 53.492C338.544 53.492 339.45 53.7693 340.165 54.324C340.89 54.868 341.376 55.636 341.621 56.628H339.205C339.077 56.244 338.858 55.9453 338.549 55.732C338.25 55.508 337.877 55.396 337.429 55.396C336.789 55.396 336.282 55.6307 335.909 56.1C335.536 56.5587 335.349 57.2147 335.349 58.068C335.349 58.9107 335.536 59.5667 335.909 60.036C336.282 60.4947 336.789 60.724 337.429 60.724C338.336 60.724 338.928 60.3187 339.205 59.508H341.621C341.376 60.468 340.89 61.2307 340.165 61.796C339.44 62.3613 338.533 62.644 337.445 62.644C336.592 62.644 335.834 62.4573 335.173 62.084C334.512 61.7 333.994 61.1667 333.621 60.484C333.248 59.7907 333.061 58.9853 333.061 58.068Z" fill="url(#paint2_linear_4014_56)"/>
<defs>
<linearGradient id="paint0_linear_4014_56" x1="6.63769e-07" y1="63.8021" x2="33.3347" y2="26.8083" gradientUnits="userSpaceOnUse">
<stop stop-color="#5CB0FF"/>
<stop offset="0.471388" stop-color="#1890FF"/>
<stop offset="1" stop-color="#17B0C2"/>
</linearGradient>
<linearGradient id="paint1_linear_4014_56" x1="53.3308" y1="17.3922" x2="12.4106" y2="63.9548" gradientUnits="userSpaceOnUse">
<stop stop-color="#0AA6B8"/>
<stop offset="0.192495" stop-color="#3BCDDE"/>
<stop offset="0.531658" stop-color="#2A99FF"/>
</linearGradient>
<linearGradient id="paint2_linear_4014_56" x1="370.833" y1="56.5" x2="63.2456" y2="56.5" gradientUnits="userSpaceOnUse">
<stop stop-color="#0AA6B8"/>
<stop offset="0.192495" stop-color="#3BCDDE"/>
<stop offset="1" stop-color="#2A99FF"/>
</linearGradient>
</defs>
</svg>
